{"title":"Warrior's.Way.2010.TS.XViD-T0XiC-iNK","uid":6095335,"size":744130124,"categoryP":"video","categoryS":"movies","magnet":"?xt=urn:btih:bbdc67f3ff8e5034695557580cc110b9dde590c6&amp;dn=Warrior%5C%27s.Way.2010.TS.XViD-T0XiC-iNK&amp;tr=udp%3A%2F%2Ftracker.openbittorrent.com%3A80&amp;tr=udp%3A%2F%2Fopen.demonii.com%3A1337&amp;tr=udp%3A%2F%2Ftracker.coppersurfer.tk%3A6969&amp;tr=udp%3A%2F%2Fexodus.desync.com%3A6969","seeders":0,"leechers":1,"uploader":"SAFCukO09","files":4,"time":1294745178,"description":"::::::::::::::Enjoy:Another:Release:From:T0XiC::::::::::::::\n\n\n\nFile:: Warrior's.Way.2010.TS.XViD-T0XiC-iNK\n\nVideo Source:: ....russian CAM\n\nAudio Source:: ....thnx matey\n\nLanguage::English\n\nIMDB: http://www.imdb.com/title/tt1032751/\n\n\n\nA warrior-assassin is forced to hide in a small town in the American Badlands after refusing a mission.\n\n\n\nSpecs::\n\n\n\nGeneral\n\n\n\nFormat : AVI\n\nFormat/Info : Audio Video Interleave\n\nFile size : 704 MiB\n\nDuration : 1h 27mn\n\nOverall bit rate : 1 119 Kbps\n\nWriting application : VirtualDubMod 1.5.10.2 (build 2540/release)\n\nWriting library : VirtualDubMod build 2540/release\n\n\n\nVideo\n\nID : 0\n\nFormat : MPEG-4 Visual\n\nFormat profile : Advanced Simple@L5\n\nFormat settings, BVOP : Yes\n\nFormat settings, QPel : No\n\nFormat settings, GMC : No warppoints\n\nFormat settings, Matrix : Custom\n\nCodec ID : XVID\n\nCodec ID/Hint : XviD\n\nDuration : 1h 27mn\n\nBit rate : 981 Kbps\n\nWidth : 640 pixels\n\nHeight : 288 pixels\n\nDisplay aspect ratio : 2.222\n\nFrame rate : 25.000 fps\n\nColor space : YUV\n\nChroma subsampling : 4:2:0\n\nBit depth : 8 bits\n\nScan type : Progressive\n\nBits/(Pixel*Frame) : 0.213\n\nStream size : 617 MiB (88%)\n\nWriting library : XviD 1.2.1 (UTC 2008-12-04)\n\n\n\nAudio\n\nID : 1\n\nFormat : MPEG Audio\n\nFormat version : Version 1\n\nFormat profile : Layer 3\n\nCodec ID : 55\n\nCodec ID/Hint : MP3\n\nDuration : 1h 27mn\n\nBit rate mode : Constant\n\nBit rate : 128 Kbps\n\nChannel(s) : 2 channels\n\nSampling rate : 44.1 KHz\n\nStream size : 80.5 MiB (11%)\n\nAlignment : Split accross interleaves\n\nInterleave, duration : 40 ms (1.00 video frame)\n\nInterleave, preload duration : 500 ms\n\n\n\n\n\n\n\nNOTES:: Did the best we could with the russian CAM. There's nothing on the horizon with a r5 for this movie\n\n\n\nand there's no point in wasting this great LiNE to a dvdrip that might pop up, so here's what you get for\n\n\n\nwhat we can work with.\n\n\n\n\n\n::Why Complain? Whats Free Is Free::\n\n\n\n\n\n::We are looking for unreleased DVD's, Screeners, New Music Releases, R5's, Audio, Cams, Silvers,\n\nAnd Any Other Good Sources You Have To Offer contact us: &lt;a class=&quot;__cf_email__&quot; href=&quot;/cdn-cgi/l/email-protection&quot; data-cfemail=&quot;0b7f3b736268796e676e6a786e784b637e7863666a626725686466&quot;&gt;[email&amp;#160;protected]&lt;/a&gt;&lt;script cf-hash='f9e31' type=&quot;text/javascript&quot;&gt;\n/* &lt;![CDATA[ */!function(){try{var t=&quot;currentScript&quot;in document?document.currentScript:function(){for(var t=document.getElementsByTagName(&quot;script&quot;),e=t.length;e--;)if(t[e].getAttribute(&quot;cf-hash&quot;))return t[e]}();if(t&amp;&amp;t.previousSibling){var e,r,n,i,c=t.previousSibling,a=c.getAttribute(&quot;data-cfemail&quot;);if(a){for(e=&quot;&quot;,r=parseInt(a.substr(0,2),16),n=2;a.length-n;n+=2)i=parseInt(a.substr(n,2),16)^r,e+=String.fromCharCode(i);e=document.createTextNode(e),c.parentNode.replaceChild(e,c)}}}catch(u){}}();/* ]]&gt; */&lt;/script&gt;\n\n\n\n::::::::::::::Hats Off To::::::::::::::\n\n::IMAGiNE,FLAWL3SS,MTV,iNK,bob,Tranz,Vik,OneTwo,everyone on utn and PA::\n\n&quot;And to all of you who support us, Thank you&quot;","torrent":{"xt":"urn:btih:bbdc67f3ff8e5034695557580cc110b9dde590c6","amp;dn":"Warrior%5C%27s.Way.2010.TS.XViD-T0XiC-iNK","amp;tr":["udp%3A%2F%2Ftracker.openbittorrent.com%3A80","udp%3A%2F%2Fopen.demonii.com%3A1337","udp%3A%2F%2Ftracker.coppersurfer.tk%3A6969","udp%3A%2F%2Fexodus.desync.com%3A6969"],"infoHash":"bbdc67f3ff8e5034695557580cc110b9dde590c6","infoHashBuffer":{"type":"Buffer","data":[187,220,103,243,255,142,80,52,105,85,87,88,12,193,16,185,221,229,144,198]},"announce":[],"urlList":[]}}